<svg width="52" height="52" viewBox="0 0 52 52" fill="none" xmlns="http://www.w3.org/2000/svg">
<path d="M21.125 39C21.125 39.431 20.9538 39.8443 20.6491 40.149C20.3443 40.4538 19.931 40.625 19.5 40.625H16.25C15.8191 40.625 15.4057 40.4538 15.101 40.149C14.7962 39.8443 14.625 39.431 14.625 39C14.625 38.569 14.7962 38.1557 15.101 37.851C15.4057 37.5462 15.8191 37.375 16.25 37.375H19.5C19.931 37.375 20.3443 37.5462 20.6491 37.851C20.9538 38.1557 21.125 38.569 21.125 39ZM35.75 37.375H32.5C32.0691 37.375 31.6557 37.5462 31.351 37.851C31.0462 38.1557 30.875 38.569 30.875 39C30.875 39.431 31.0462 39.8443 31.351 40.149C31.6557 40.4538 32.0691 40.625 32.5 40.625H35.75C36.181 40.625 36.5943 40.4538 36.8991 40.149C37.2038 39.8443 37.375 39.431 37.375 39C37.375 38.569 37.2038 38.1557 36.8991 37.851C36.5943 37.5462 36.181 37.375 35.75 37.375ZM20.3125 27.625C20.7946 27.625 21.2659 27.482 21.6667 27.2142C22.0676 26.9464 22.38 26.5657 22.5645 26.1203C22.749 25.6749 22.7973 25.1848 22.7032 24.712C22.6092 24.2391 22.377 23.8048 22.0361 23.4639C21.6952 23.123 21.2609 22.8909 20.7881 22.7968C20.3152 22.7028 19.8251 22.7511 19.3798 22.9355C18.9344 23.12 18.5537 23.4325 18.2858 23.8333C18.018 24.2341 17.875 24.7054 17.875 25.1875C17.875 25.834 18.1318 26.454 18.589 26.9111C19.0461 27.3682 19.6661 27.625 20.3125 27.625ZM31.6875 27.625C32.1696 27.625 32.6409 27.482 33.0417 27.2142C33.4426 26.9464 33.755 26.5657 33.9395 26.1203C34.124 25.6749 34.1723 25.1848 34.0782 24.712C33.9842 24.2391 33.752 23.8048 33.4111 23.4639C33.0702 23.123 32.6359 22.8909 32.1631 22.7968C31.6902 22.7028 31.2001 22.7511 30.7548 22.9355C30.3094 23.12 29.9287 23.4325 29.6608 23.8333C29.393 24.2341 29.25 24.7054 29.25 25.1875C29.25 25.834 29.5069 26.454 29.964 26.9111C30.4211 27.3682 31.0411 27.625 31.6875 27.625ZM49.6418 24.8056C49.337 25.1788 48.9531 25.4796 48.5179 25.6861C48.0826 25.8927 47.6068 25.9999 47.125 26H40.625V32.5C41.9893 33.5232 42.997 34.9497 43.5055 36.5774C44.0139 38.2051 43.9974 39.9516 43.4581 41.5694C42.9188 43.1871 41.8842 44.5942 40.5008 45.5913C39.1174 46.5884 37.4553 47.125 35.75 47.125H16.25C14.5447 47.125 12.8827 46.5884 11.4993 45.5913C10.1159 44.5942 9.08125 43.1871 8.54199 41.5694C8.00273 39.9516 7.98616 38.2051 8.49462 36.5774C9.00308 34.9497 10.0108 33.5232 11.375 32.5V26H4.87504C4.39706 25.9992 3.92512 25.893 3.49288 25.6889C3.06064 25.4849 2.67874 25.188 2.37438 24.8194C2.07002 24.4509 1.85071 24.0197 1.73207 23.5567C1.61343 23.0936 1.59839 22.6101 1.68801 22.1406C2.20906 19.5651 3.60374 17.2486 5.63615 15.583C7.66855 13.9174 10.2139 13.0049 12.8416 13H13.1747C12.0903 11.943 11.2286 10.6794 10.6404 9.28397C10.0522 7.8885 9.74948 6.38936 9.75004 4.875C9.75004 4.44402 9.92125 4.0307 10.226 3.72595C10.5307 3.4212 10.9441 3.25 11.375 3.25C11.806 3.25 12.2193 3.4212 12.5241 3.72595C12.8288 4.0307 13 4.44402 13 4.875C13 7.02988 13.8561 9.09651 15.3798 10.6202C16.9035 12.144 18.9702 13 21.125 13H30.875C31.942 13 32.9986 12.7898 33.9843 12.3815C34.9701 11.9732 35.8658 11.3747 36.6203 10.6202C37.3748 9.86577 37.9732 8.97007 38.3816 7.9843C38.7899 6.99853 39 5.94199 39 4.875C39 4.44402 39.1712 4.0307 39.476 3.72595C39.7807 3.4212 40.1941 3.25 40.625 3.25C41.056 3.25 41.4693 3.4212 41.7741 3.72595C42.0788 4.0307 42.25 4.44402 42.25 4.875C42.2506 6.38936 41.9479 7.8885 41.3597 9.28397C40.7715 10.6794 39.9098 11.943 38.8254 13H39.1585C41.7862 13.0049 44.3315 13.9174 46.3639 15.583C48.3963 17.2486 49.791 19.5651 50.3121 22.1406C50.4043 22.6068 50.3921 23.0876 50.2762 23.5484C50.1603 24.0092 49.9436 24.4386 49.6418 24.8056ZM14.625 31.0375C15.16 30.9297 15.7043 30.8753 16.25 30.875H35.75C36.2958 30.8753 36.8401 30.9297 37.375 31.0375V21.125C37.375 19.8321 36.8614 18.5921 35.9472 17.6779C35.033 16.7636 33.793 16.25 32.5 16.25H19.5C18.2071 16.25 16.9671 16.7636 16.0529 17.6779C15.1387 18.5921 14.625 19.8321 14.625 21.125V31.0375ZM11.375 22.75V21.125C11.3721 19.3665 11.9426 17.655 13 16.25H12.8375C10.9654 16.253 9.15146 16.9011 7.70118 18.085C6.25089 19.2689 5.25283 20.9164 4.87504 22.75H11.375ZM40.625 39C40.625 37.7071 40.1114 36.4671 39.1972 35.5529C38.283 34.6386 37.043 34.125 35.75 34.125H16.25C14.9571 34.125 13.7171 34.6386 12.8029 35.5529C11.8887 36.4671 11.375 37.7071 11.375 39C11.375 40.2929 11.8887 41.5329 12.8029 42.4471C13.7171 43.3614 14.9571 43.875 16.25 43.875H35.75C37.043 43.875 38.283 43.3614 39.1972 42.4471C40.1114 41.5329 40.625 40.2929 40.625 39ZM47.125 22.75C46.7476 20.9162 45.7496 19.2685 44.2993 18.0845C42.8489 16.9006 41.0348 16.2527 39.1625 16.25H39C40.0575 17.655 40.628 19.3665 40.625 21.125V22.75H47.125Z" fill="#FBFBFE"/>
</svg>
